{"title":"April and the Extraordinary World 2015 BDRip 720p Multilanguage","uid":15392899,"size":4693955189,"categoryP":"video","categoryS":"hd___movies","magnet":"?xt=urn:btih:ff09d2ea95b7b24cc3717f11f449ac96e837ac8b&amp;dn=April+and+the+Extraordinary+World+2015+BDRip+720p+Multilanguage&amp;tr=udp%3A%2F%2Ftracker.leechers-paradise.org%3A6969&amp;tr=udp%3A%2F%2Fzer0day.ch%3A1337&amp;tr=udp%3A%2F%2Fopen.demonii.com%3A1337&amp;tr=udp%3A%2F%2Ftracker.coppersurfer.tk%3A6969&amp;tr=udp%3A%2F%2Fexodus.desync.com%3A6969","seeders":9,"leechers":1,"uploader":null,"files":1,"time":1469363924,"description":"Audio: French, English\r\nSubtitles/legendas: Português, English (MKV track)\r\n\r\n===========================================================\r\nFrom the producers of the Academy Award-nominated Persepolis and the mind of renowned graphic novelist Jacques Tardi comes a riveting sci-fi adventure set in an alternate steampunk world. Paris, 1941. A family of scientists is on the brink of discovering a powerful longevity serum when all of a sudden a mysterious force abducts them, leaving their young daughter April behind. Ten years later, April (Academy Award winner Marion Cotillard) lives alone with her cat, Darwin, and carries on her family's research in secret. But she soon finds herself at the center of a shadowy and far- reaching conspiracy, and on the run from government agents, bicycle-powered dirigibles and cyborg rat spies.\r\n\r\n===========================================================\r\nDos produtores de Persepolis e ma criação do renomado novelista gráfico Jacques Tardi surge uma instigante aventura de ficção científica ambientada num cenário steam-punk de uma Paris alternativa em 1941. Uma família de cientista está à beira de descobrir um poderoso elixir da juventude quando são raptados de repente por forças misteriosas, deixando para trás sua filha Avril. Dez anos depois, Avril vive sozinha com seu gato, Darwin, e continua a pesquisa de sua família em segredo. Mas logo se verá no centro de uma conspiração tenebrosa e longo alcance, fugindo de agentes do governo com dirigíveis movidos à bicicleta e ratos cibernéticos espiões.\r\n\r\n===========================================================\r\n\r\nVideo\r\nID                             : 1\r\nFormat                         : AVC\r\nFormat/Info                    : Advanced Video Codec\r\nFormat profile                 :   \r\nFormat settings, CABAC         : Yes\r\nFormat settings, ReFrames      : 5 frames\r\nCodec ID                       : V_MPEG4/ISO/AVC\r\nDuration                       : 1h 46mn\r\nBit rate                       : 3 594 Kbps\r\nWidth                          : 1 280 pixels\r\nHeight                         : 688 pixels\r\nDisplay aspect ratio           : 1.85:1\r\nFrame rate mode                : Constant\r\nFrame rate                     : 23.976 fps\r\nColor space                    : YUV\r\nChroma subsampling             : 4:2:0\r\nBit depth                      : 8 bits\r\nScan type                      : Progressive\r\nBits/(Pixel*Frame)             : 0.170\r\nStream size                    : 2.59 GiB (59%)\r\n\r\nAudio #1\r\nID                             : 2\r\nFormat                         : DTS\r\nFormat/Info                    : Digital Theater Systems\r\nMode                           : 16\r\nFormat settings, Endianness    : Big\r\nCodec ID                       : A_DTS\r\nDuration                       : 1h 46mn\r\nBit rate mode                  : Constant\r\nBit rate                       : 768 Kbps\r\nChannel(s)                     : 6 channels\r\nChannel positions              : Front: L C R, Side: L R, LFE\r\nSampling rate                  : 48.0 KHz\r\nBit depth                      : 24 bits\r\nCompression mode               : Lossy\r\nStream size                    : 585 MiB (13%)\r\nLanguage                       : French\r\nDefault                        : Yes\r\nForced                         : No\r\n\r\nAudio #2\r\nID                             : 3\r\nFormat                         : DTS\r\nFormat/Info                    : Digital Theater Systems\r\nMode                           : 16\r\nFormat settings, Endianness    : Big\r\nCodec ID                       : A_DTS\r\nDuration                       : 1h 46mn\r\nBit rate mode                  : Constant\r\nBit rate                       : 1 509 Kbps\r\nChannel(s)                     : 6 channels\r\nChannel positions              : Front: L C R, Side: L R, LFE\r\nSampling rate                  : 48.0 KHz\r\nBit depth                      : 24 bits\r\nCompression mode               : Lossy\r\nStream size                    : 1.12 GiB (26%)\r\nLanguage                       : English\r\nDefault                        : No\r\nForced                         : No\r\n\r\nText #1\r\nID                             : 4\r\nFormat                         : UTF-8\r\nCodec ID                       : S_TEXT/UTF8\r\nCodec ID/Info                  : UTF-8 Plain Text\r\nLanguage                       : Portuguese\r\nDefault                        : Yes\r\nForced                         : No\r\n\r\nText #2\r\nID                             : 5\r\nFormat                         : UTF-8\r\nCodec ID                       : S_TEXT/UTF8\r\nCodec ID/Info                  : UTF-8 Plain Text\r\nLanguage                       : English\r\nDefault                        : No\r\nForced                         : No\r\n\r\nMenu\r\n00:00:00.000                   : en:00:00:00.000\r\n00:05:46.346                   : en:00:05:46.346\r\n00:10:01.768                   : en:00:10:01.768\r\n00:15:23.881                   : en:00:15:23.881\r\n00:21:23.282                   : en:00:21:23.282\r\n00:26:29.963                   : en:00:26:29.963\r\n00:31:39.564                   : en:00:31:39.564\r\n00:37:30.081                   : en:00:37:30.081\r\n00:42:15.908                   : en:00:42:15.908\r\n00:47:04.113                   : en:00:47:04.113\r\n00:52:40.574                   : en:00:52:40.574\r\n00:58:39.725                   : en:00:58:39.725\r\n01:03:17.168                   : en:01:03:17.168\r\n01:10:05.159                   : en:01:10:05.159\r\n01:13:53.304                   : en:01:13:53.304\r\n01:19:29.056                   : en:01:19:29.056\r\n01:25:19.823                   : en:01:25:19.823\r\n01:30:04.983                   : en:01:30:04.983\r\n01:34:55.356                   : en:01:34:55.356\r\n01:39:21.539                   : en:01:39:21.539","torrent":{"xt":"urn:btih:ff09d2ea95b7b24cc3717f11f449ac96e837ac8b","amp;dn":"April+and+the+Extraordinary+World+2015+BDRip+720p+Multilanguage","amp;tr":["udp%3A%2F%2Ftracker.leechers-paradise.org%3A6969","udp%3A%2F%2Fzer0day.ch%3A1337","udp%3A%2F%2Fopen.demonii.com%3A1337","udp%3A%2F%2Ftracker.coppersurfer.tk%3A6969","udp%3A%2F%2Fexodus.desync.com%3A6969"],"infoHash":"ff09d2ea95b7b24cc3717f11f449ac96e837ac8b","infoHashBuffer":{"type":"Buffer","data":[255,9,210,234,149,183,178,76,195,113,127,17,244,73,172,150,232,55,172,139]},"announce":[],"urlList":[]}}